<svg width="71" height="31" viewBox="0 0 71 31" fill="none" xmlns="http://www.w3.org/2000/svg">
<rect width="70.9333" height="30.4" rx="5.91111" fill="#33C524"/>
<path d="M10.6195 22.1486C10.2355 22.1486 9.93828 22.0433 9.72773 21.8328C9.52957 21.6099 9.43049 21.3064 9.43049 20.9225V10.1102C9.43049 9.7139 9.53576 9.41665 9.74631 9.21849C9.95686 9.00794 10.2541 8.90267 10.638 8.90267H15.1153C16.552 8.90267 17.6604 9.26184 18.4407 9.98018C19.221 10.6985 19.6111 11.7017 19.6111 12.9898C19.6111 14.2778 19.221 15.2872 18.4407 16.018C17.6604 16.7363 16.552 17.0955 15.1153 17.0955H11.8084V20.9225C11.8084 21.3064 11.7094 21.6099 11.5112 21.8328C11.313 22.0433 11.0158 22.1486 10.6195 22.1486ZM11.8084 15.2191H14.7437C15.5859 15.2191 16.2238 15.0333 16.6572 14.6618C17.0907 14.2778 17.3075 13.7205 17.3075 12.9898C17.3075 12.2591 17.0907 11.7079 16.6572 11.3364C16.2238 10.9648 15.5859 10.779 14.7437 10.779H11.8084V15.2191ZM25.5702 22.1486C25.1863 22.1486 24.889 22.0433 24.6785 21.8328C24.4803 21.6099 24.3812 21.3064 24.3812 20.9225V10.8905H20.7586C20.4366 10.8905 20.1827 10.8038 19.9969 10.6304C19.8235 10.4446 19.7368 10.1969 19.7368 9.88729C19.7368 9.56527 19.8235 9.32376 19.9969 9.16275C20.1827 8.98936 20.4366 8.90267 20.7586 8.90267H30.3819C30.7039 8.90267 30.9516 8.98936 31.125 9.16275C31.3108 9.32376 31.4036 9.56527 31.4036 9.88729C31.4036 10.1969 31.3108 10.4446 31.125 10.6304C30.9516 10.8038 30.7039 10.8905 30.3819 10.8905H26.7592V20.9225C26.7592 21.3064 26.6601 21.6099 26.462 21.8328C26.2638 22.0433 25.9666 22.1486 25.5702 22.1486Z" fill="white"/>
<path d="M52.736 20.7085C52.398 21.1476 51.7358 21.1476 51.3977 20.7085L44.3377 11.5373C43.9103 10.982 44.3061 10.1778 45.0069 10.1778L59.1269 10.1778C59.8276 10.1778 60.2235 10.982 59.796 11.5373L52.736 20.7085Z" fill="white"/>
</svg>
